<svg xmlns="http://www.w3.org/2000/svg" width="141" height="20.145" viewBox="0 0 141 20.145" fill="none">
  <path d="M 35.503 14.332 C 35.503 6.871 23.471 9.702 23.471 5.148 C 23.471 3.4 25.15 2.218 27.671 2.218 C 30.191 2.218 32.044 3.4 32.71 5.691 L 35.157 4.854 C 34.391 1.846 31.501 0 27.696 0 C 23.89 0 20.727 2.019 20.727 5.27 C 20.727 12.215 32.735 9.406 32.735 14.503 C 32.735 16.868 30.734 17.926 28.238 17.926 C 25.2 17.926 22.902 16.277 22.26 13.37 L 19.739 14.059 C 20.678 17.974 23.915 20.141 28.238 20.141 C 32.191 20.141 35.501 18.245 35.501 14.329 L 35.503 14.332 Z M 4.398 15.441 L 9.215 3.078 L 9.388 3.078 L 14.182 15.439 L 14.033 15.439 L 9.809 11.006 L 8.746 11.006 L 4.497 15.439 L 4.398 15.439 L 4.398 15.441 Z M 10.896 0.222 L 7.733 0.222 L 0 19.921 L 3.336 19.921 L 9.167 13.864 L 9.464 13.864 L 15.295 19.921 L 18.631 19.921 L 10.896 0.222 Z M 130.253 2.438 L 141 2.438 L 141 0.222 L 127.486 0.222 L 127.486 19.923 L 130.253 19.923 L 130.253 10.689 L 139.098 10.689 L 139.098 8.448 L 130.253 8.448 L 130.253 2.438 Z M 112.465 17.705 L 112.465 10.687 L 121.459 10.687 L 121.459 8.446 L 112.465 8.446 L 112.465 2.438 L 123.41 2.438 L 123.41 0.222 L 109.698 0.222 L 109.698 19.923 L 123.46 19.923 L 123.46 17.706 L 112.465 17.706 L 112.465 17.705 Z M 96.404 0.222 L 96.404 2.438 L 99.517 2.438 L 99.517 17.706 L 96.404 17.706 L 96.404 19.923 L 105.373 19.923 L 105.373 17.706 L 102.26 17.706 L 102.26 2.438 L 105.373 2.438 L 105.373 0.222 L 96.404 0.222 Z M 89.314 0.222 L 89.314 8.397 L 79.555 8.397 L 79.555 0.222 L 76.788 0.222 L 76.788 19.923 L 79.555 19.923 L 79.555 10.64 L 89.314 10.64 L 89.314 19.923 L 92.08 19.923 L 92.08 0.222 L 89.314 0.222 Z M 70.489 13.397 C 70.068 16.129 68.191 17.928 65.251 17.928 C 61.422 17.928 58.951 14.85 58.951 10.072 C 58.951 5.294 61.398 2.216 65.251 2.216 C 68.017 2.216 69.896 3.89 70.34 6.55 L 73.032 6.082 C 72.415 2.338 69.573 0 65.249 0 C 59.739 0 56.181 3.841 56.181 10.072 C 56.181 16.304 59.764 20.145 65.249 20.145 C 69.622 20.145 72.587 17.632 73.156 13.742 L 70.487 13.397 L 70.489 13.397 Z M 47.14 8.029 L 54.65 0.222 L 51.241 0.222 L 42.148 9.702 L 42.148 0.222 L 39.406 0.222 L 39.406 19.923 L 42.148 19.923 L 42.148 13.2 L 45.36 9.875 L 52.278 19.923 L 55.465 19.923 L 47.14 8.029 Z" fill="#1A1A1A" fill-rule="nonzero"></path>
</svg>